# xmcd
#
# Track frame offsets: 
#        150
#        26135
#        51953
#        75792
#        95149
#        112528
#        136330
#        167711
#        203454
#        230162
#        259026
#        278516
#        291330
#        308171
#        327048
#        338090
#
# Disc length: 4765 seconds
#
# Revision: 9
# Processed by: cddbd v1.5.2PL0 Copyright (c) Steve Scherf et al.
# Submitted via: ExactAudioCopyFreeDBPlugin 1.0
#
DISCID=d4129b10
DTITLE=David Bowie - A Reality Tour [CD 2)
DYEAR=2009
DGENRE=Rock
TTITLE0=Ashes To Ashes [live]
TTITLE1=The Motel [live]
TTITLE2=Loving The Alien [live]
TTITLE3=Never Get Old [live]
TTITLE4=Changes [live]
TTITLE5=I'm Afraid Of Americans [live]
TTITLE6='Heroes' [live]
TTITLE7=Bring Me The Disco King [live]
TTITLE8=Slip Away [live]
TTITLE9=Heathen (The Rays) [live]
TTITLE10=Five Years [live]
TTITLE11=Hang On To Yourself [live]
TTITLE12=Ziggy Stardust [live]
TTITLE13=Fall Dog Bombs The Moon [live] [bonus track]
TTITLE14=Breaking Glass [live] [bonus track]
TTITLE15=China Girl [live] [bonus track]
EXTD=
EXTT0=
EXTT1=
EXTT2=
EXTT3=
EXTT4=
EXTT5=
EXTT6=
EXTT7=
EXTT8=
EXTT9=
EXTT10=
EXTT11=
EXTT12=
EXTT13=
EXTT14=
EXTT15=
PLAYORDER=
